PathFileType	4	(X/Y/Z)	C:/Users/opensim2020/Desktop/walking_exp_matlab/subject01_walking13_straight_01.trc	
DataRate	CameraRate	NumFrames	NumMarkers	Units	OrigDataRate	OrigDataStartFrame	OrigNumFrames	
100.00	100.00	6	42	mm	100.00	673	142	
Frame#	Time	LFHD			RFHD			LBHD			RBHD			C7			T10			CLAV			STRN			RBAK			LSHO			LUPA			LELB			LFRM			LWRA			LWRB			LFIN			RSHO			RUPA			RELB			RFRM			RWRA			RWRB			RFIN			LASI			RASI			LPSI			RPSI			LTHI			LKNE			LTIB			LANK			LHEE			LTOE			RTHI			RKNE			RTIB			RANK			RHEE			RTOE			*39			*40			*41			
		X1	Y1	Z1	X2	Y2	Z2	X3	Y3	Z3	X4	Y4	Z4	X5	Y5	Z5	X6	Y6	Z6	X7	Y7	Z7	X8	Y8	Z8	X9	Y9	Z9	X10	Y10	Z10	X11	Y11	Z11	X12	Y12	Z12	X13	Y13	Z13	X14	Y14	Z14	X15	Y15	Z15	X16	Y16	Z16	X17	Y17	Z17	X18	Y18	Z18	X19	Y19	Z19	X20	Y20	Z20	X21	Y21	Z21	X22	Y22	Z22	X23	Y23	Z23	X24	Y24	Z24	X25	Y25	Z25	X26	Y26	Z26	X27	Y27	Z27	X28	Y28	Z28	X29	Y29	Z29	X30	Y30	Z30	X31	Y31	Z31	X32	Y32	Z32	X33	Y33	Z33	X34	Y34	Z34	X35	Y35	Z35	X36	Y36	Z36	X37	Y37	Z37	X38	Y38	Z38	X39	Y39	Z39	X40	Y40	Z40	X41	Y41	Z41	X42	Y42	Z42	

72	0.710	-1100.14563	246.34615	1640.98340	-987.22308	262.57199	1645.33533	-1089.29407	126.87564	1607.60559	-969.21112	141.27977	1611.41614	-1040.21619	70.05920	1413.52612	-1020.61560	34.57863	1117.18933	-1045.20386	213.30714	1341.38232	-1047.35925	256.56439	1188.96802	-951.68127	15.58715	1220.19177	-1202.76379	138.66154	1367.11938	-1276.87830	66.41387	1191.05164	-1272.55701	27.47310	1044.39404	-1291.22888	50.47972	929.96075	-1268.48657	115.84026	807.51697	-1288.11719	58.88324	808.21021	-1298.55798	94.61314	733.16071	-891.30768	156.15103	1377.30347	-773.69598	107.80542	1186.33154	-758.21991	119.71996	1058.06763	-759.13818	216.59457	975.27234	-820.26251	339.23483	940.92688	-775.43237	319.06189	911.19788	-797.54010	395.66180	882.12134	-1124.73730	218.60922	914.29291	-907.11963	202.13019	906.90393	-1091.69043	29.17144	926.37933	-947.72839	19.61039	933.13507	-1185.81189	274.71304	604.30865	-1162.16455	309.35541	479.17505	-1174.71204	302.62738	291.40924	-1125.90442	317.01312	71.34632	-1074.99353	272.75104	40.71819	-1120.93567	464.83505	42.20109	-857.70734	66.17164	589.53503	-877.58557	24.17588	432.77859	-877.87781	-118.99969	326.75085	-921.62354	-255.82001	167.75409	-973.02319	-307.63791	180.14670	-948.44965	-202.64960	33.02612	-1010.33862	253.69969	1679.98474	-3102.01147	1973.11072	1024.00464	-3140.55957	2012.49854	1021.98944 
73	0.720	-1101.44751	260.15039	1641.33325	-988.49530	275.84726	1645.81641	-1091.37488	140.59439	1608.16467	-971.20313	154.39891	1612.13684	-1042.08130	83.77008	1413.68359	-1021.74750	49.18975	1117.21191	-1046.67200	226.80405	1342.14441	-1048.54919	271.15121	1190.01611	-953.87177	29.40895	1220.01282	-1204.53735	152.49924	1366.87122	-1278.54639	82.49878	1189.81079	-1273.73767	44.58612	1042.91321	-1292.14868	67.56346	928.65643	-1269.13416	132.55692	806.06531	-1289.00159	75.61764	806.91870	-1299.30396	111.37758	731.83496	-892.90887	169.04538	1377.77307	-776.07532	119.09789	1186.57166	-760.45862	131.24962	1058.46399	-760.57477	227.08444	974.67236	-820.88885	349.75821	938.37408	-775.83746	329.12485	909.10486	-797.58704	405.37341	879.00824	-1125.56287	233.91219	915.14032	-908.78741	217.59944	906.80450	-1091.92944	44.28738	927.58569	-947.66400	35.36767	932.81866	-1185.60413	289.25845	605.19159	-1160.16907	324.82513	480.60580	-1175.49109	315.04294	291.42627	-1124.46216	319.31744	71.73340	-1074.78845	274.23560	41.43584	-1119.26038	467.99490	40.05090	-857.48962	86.15813	587.78632	-875.31152	46.62325	430.43036	-876.17847	-98.90749	328.36447	-918.69800	-239.91750	173.22150	-971.38629	-289.59753	189.82806	-949.14392	-201.28169	32.76276	-1011.57379	267.54639	1680.66284	-3101.95142	1973.13452	1023.86194	-3140.57544	2012.54028	1022.05255 
74	0.730	-1102.78113	273.83035	1641.87805	-989.78558	288.99670	1646.48865	-1093.16040	154.20911	1608.71008	-973.03320	167.44696	1612.91357	-1043.78284	97.19051	1413.88489	-1023.06799	63.65878	1117.28052	-1047.95728	240.40878	1342.95020	-1049.45703	285.52328	1191.02771	-955.77972	43.13599	1220.09009	-1206.08728	166.48239	1366.88953	-1280.11926	98.87358	1188.90234	-1274.98975	62.07506	1041.79980	-1293.24854	85.25358	927.78687	-1269.89148	150.04308	805.12103	-1290.07483	93.26393	805.95563	-1300.15576	129.03162	730.83795	-894.33826	181.94470	1378.33032	-778.46722	130.36966	1186.93872	-762.58850	142.21515	1059.00159	-761.95190	237.45355	974.14044	-821.39935	359.82971	935.62610	-776.28424	338.55246	906.99426	-797.49255	414.27939	875.40302	-1126.56921	248.62285	916.52106	-910.53833	232.40907	906.69757	-1092.13599	58.71917	928.87134	-947.59088	50.47082	932.70221	-1183.66919	304.94479	606.41217	-1158.87244	338.89761	480.41953	-1174.87769	324.88565	289.86755	-1123.90417	321.91940	71.44407	-1075.00830	274.52609	41.79161	-1117.57031	470.08881	38.88297	-857.05054	107.02814	585.81415	-873.59064	70.26591	428.12881	-874.25031	-77.67428	330.00458	-916.45471	-223.69217	178.57466	-969.07135	-270.96310	199.80275	-949.46082	-196.29285	35.95558	-1013.16492	281.08954	1681.35193	-3102.16187	1972.99670	1023.95496	-3140.62476	2012.55481	1021.94861 
75	0.740	-1104.12036	287.29898	1642.60449	-991.01300	301.96280	1647.46948	-1094.84619	167.69389	1609.33142	-974.62598	180.40126	1613.74475	-1045.33533	110.33984	1414.26160	-1024.29187	77.72869	1117.77563	-1048.98950	254.00134	1343.78125	-1050.15332	299.69565	1192.09314	-957.42670	56.63449	1220.53882	-1207.47766	180.61722	1367.16553	-1281.43250	115.45004	1188.26978	-1276.33569	79.91364	1041.06946	-1294.27368	103.56421	927.25256	-1270.96106	168.43271	804.61066	-1291.27209	111.64026	805.40442	-1300.97327	147.58615	730.27130	-895.56433	194.80840	1379.05920	-780.70929	141.46031	1187.38843	-764.85266	153.32391	1059.61987	-763.36560	247.21324	973.48364	-821.69397	369.54486	932.65063	-776.80829	347.33340	904.46204	-797.02264	422.70428	871.54352	-1127.78662	262.74219	917.91974	-912.23444	247.05096	907.01093	-1092.43005	72.94955	930.11652	-947.64996	65.03138	932.87567	-1182.76709	320.69394	607.64166	-1158.37463	351.69354	478.92264	-1174.23865	332.87433	288.64096	-1123.36096	322.51648	71.16032	-1074.83984	274.93130	42.15248	-1118.06641	470.78619	37.94067	-856.51990	128.64661	583.65131	-872.54272	95.22886	425.56818	-872.53955	-55.31170	331.48813	-914.38776	-205.82431	185.24121	-966.30524	-251.60303	210.85463	-948.87036	-189.81432	40.87223	-1014.40210	294.31683	1682.21716	-3102.03101	1973.05505	1023.76263	-3140.61548	2012.46802	1021.97699 
76	0.750	-1105.06409	300.73419	1643.64087	-992.02631	314.91364	1648.65076	-1096.42700	181.10695	1610.07654	-976.18011	193.23285	1614.67102	-1046.88281	123.61887	1414.97351	-1025.70679	91.62572	1118.60657	-1049.76685	267.45895	1344.81238	-1050.60815	313.43527	1193.22266	-958.86255	69.94274	1221.38708	-1208.61646	194.97722	1367.75305	-1282.70056	132.27252	1187.99426	-1277.64075	97.98800	1040.59534	-1295.47412	122.36880	927.11884	-1271.69885	187.41438	804.55908	-1292.42651	131.15999	805.25012	-1302.00403	167.04640	730.15637	-896.61273	207.56863	1379.85046	-782.76953	152.50644	1188.09290	-767.09851	163.96785	1060.36853	-764.50641	256.90720	972.87921	-821.60852	378.59641	929.56696	-776.87323	355.69690	901.84283	-796.45972	430.50494	867.40857	-1129.24585	276.45724	919.31128	-914.24365	260.91843	907.51025	-1092.77734	86.82198	931.28015	-947.85681	79.10469	932.85883	-1182.35632	335.21301	608.18494	-1158.29773	363.07916	477.17722	-1173.65930	338.80457	288.03824	-1123.00500	323.14728	71.31856	-1074.78699	275.08902	42.43551	-1117.37256	471.69949	37.47636	-856.37622	151.03975	581.44397	-871.82239	121.22101	423.21661	-870.98901	-31.28914	333.01672	-912.86212	-186.32458	193.20009	-963.76141	-230.06584	222.26184	-947.52527	-181.76436	47.14801	-1015.65247	307.00366	1683.27454	-3101.92822	1973.16565	1023.48987	-3140.64453	2012.44592	1022.06628 
77	0.760	-1106.33838	313.97968	1644.83569	-992.86481	327.83194	1649.91150	-1097.82654	194.49773	1611.02686	-977.54480	206.11745	1615.87366	-1048.27905	137.11830	1416.08142	-1026.98083	105.21670	1119.79346	-1050.31726	280.84692	1345.92712	-1050.88916	326.14038	1194.18518	-959.90137	82.81885	1222.75732	-1209.59387	209.39780	1368.59167	-1283.62524	149.42297	1188.02881	-1279.09375	116.34589	1040.40100	-1296.73401	141.62459	927.18103	-1272.05823	206.97137	804.92871	-1293.65845	151.09831	805.41168	-1302.94495	187.50467	730.59784	-897.41675	220.30106	1381.08203	-784.66730	163.63580	1188.93091	-769.47021	174.51076	1061.22266	-765.65375	266.06604	972.11304	-821.55389	387.35980	925.98730	-777.25238	363.27167	898.88831	-795.54065	437.55423	862.95233	-1130.71973	289.75827	920.63507	-915.24310	275.61917	909.07104	-1093.26575	100.32398	932.32257	-948.03827	92.70116	932.90143	-1182.61609	347.54861	608.27484	-1158.80188	372.68213	476.09192	-1172.33496	342.94513	288.14145	-1122.89063	323.94592	71.75363	-1074.63318	275.11072	42.59223	-1117.41724	472.04379	37.27033	-856.33026	174.05405	579.53259	-871.40729	148.18095	421.23920	-869.54010	-6.84003	334.77722	-911.97467	-165.41772	201.59123	-962.34552	-207.19543	233.27129	-945.69958	-169.78232	54.41633	-1016.60162	319.71686	1684.51501	-3101.95728	1973.08765	1023.43524	-3140.78833	2012.48206	1022.07001 
